<?xml version="1.0" standalone="no"?><svg xmlns="http://www.w3.org/2000/svg" xmlns:xlink="http://www.w3.org/1999/xlink" style="isolation:isolate" viewBox="0 0 600 600"><path d=" M 61.906 236.732 C 55.603 258.613 52.226 281.728 52.226 305.625 C 52.226 328.012 55.19 349.713 60.746 370.356 L 11.177 399.745 L 72.68 506.27 L 121.218 477.492 C 153.344 511.079 194.778 535.691 241.358 547.164 L 241.97 600 L 364.975 600 L 364.352 546.202 C 410.999 533.927 452.307 508.43 484.019 473.968 L 530.793 500.255 L 592.295 393.73 L 542.393 365.684 C 547.17 346.448 549.705 326.33 549.705 305.625 C 549.705 279.386 545.634 254.09 538.088 230.335 L 588.823 200.255 L 527.32 93.73 L 472.934 125.975 C 441.581 95.953 402.395 74.047 358.767 63.648 L 358.03 0 L 235.025 0 L 235.783 65.528 C 192.9 77.159 154.602 99.984 124.226 130.666 L 69.207 99.745 L 7.705 206.27 L 61.906 236.732 Z  M 272.843 447.624 L 185.806 397.371 C 185.946 396.888 186.076 396.401 186.197 395.913 L 413.793 395.913 C 413.998 396.745 414.23 397.569 414.49 398.385 L 327.877 448.393 C 320.987 440.831 311.055 436.092 300 436.092 C 289.324 436.092 279.697 440.512 272.843 447.624 L 272.843 447.624 Z  M 160.1 350.692 L 273.96 153.487 C 273.594 153.138 273.235 152.781 272.883 152.417 L 185.729 202.737 C 188.444 212.216 187.461 222.734 182.161 231.954 L 182.161 231.954 C 176.855 241.185 168.21 247.305 158.615 249.69 L 158.615 350.293 C 159.113 350.416 159.608 350.549 160.1 350.692 L 160.1 350.692 Z  M 441.385 350.284 L 441.385 249.69 C 431.79 247.305 423.145 241.185 417.839 231.954 L 417.839 231.954 C 412.549 222.752 411.56 212.258 414.255 202.794 L 327.076 152.46 C 326.745 152.801 326.408 153.136 326.064 153.465 L 439.926 350.673 C 440.409 350.533 440.896 350.404 441.385 350.284 L 441.385 350.284 Z  M 413.757 377.983 L 186.245 377.983 C 185.419 374.58 184.103 371.235 182.269 368.046 C 180.419 364.861 178.179 362.047 175.644 359.628 L 289.5 162.431 C 292.832 163.392 296.355 163.908 300 163.908 L 300 163.908 C 303.657 163.908 307.191 163.389 310.532 162.421 L 424.366 359.582 C 421.818 362.011 419.573 364.841 417.731 368.046 C 415.899 371.233 414.583 374.578 413.757 377.983 L 413.757 377.983 Z  M 263.829 463.123 L 176.881 412.922 C 174.458 415.465 171.637 417.712 168.444 419.567 C 150.298 429.936 127.292 423.779 116.923 405.742 L 116.923 405.742 C 106.554 387.704 112.711 364.698 130.749 354.221 C 133.938 352.388 137.282 351.071 140.686 350.245 L 140.686 249.779 C 137.243 248.955 133.861 247.63 130.641 245.779 C 112.603 235.41 106.446 212.296 116.815 194.258 C 127.184 176.221 150.298 170.064 168.336 180.433 C 171.563 182.308 174.411 184.584 176.851 187.16 L 263.846 136.932 C 262.843 133.535 262.305 129.938 262.305 126.212 C 262.305 105.366 279.154 88.517 300 88.517 C 320.846 88.517 337.695 105.366 337.695 126.212 C 337.695 129.958 337.151 133.575 336.138 136.988 L 423.109 187.203 C 425.558 184.608 428.419 182.318 431.664 180.433 C 449.702 170.064 472.708 176.221 483.185 194.258 C 493.554 212.296 487.397 235.302 469.359 245.779 C 466.139 247.63 462.757 248.955 459.314 249.779 L 459.314 350.247 C 462.72 351.073 466.065 352.389 469.251 354.221 C 487.397 364.698 493.554 387.704 483.077 405.742 L 483.077 405.742 C 472.708 423.779 449.594 429.936 431.556 419.567 C 427.965 417.503 424.845 414.933 422.232 411.999 L 335.791 461.908 C 337.027 465.642 337.695 469.635 337.695 473.788 C 337.695 494.526 320.846 511.483 300 511.483 L 300 511.483 C 279.154 511.483 262.305 494.634 262.305 473.788 C 262.305 470.082 262.837 466.503 263.829 463.123 L 263.829 463.123 Z " fill-rule="evenodd" id="Compound Shape" fill="rgb(225,0,152)"/></svg>